<?xml version="1.0" encoding="UTF-8"?> <svg xmlns="http://www.w3.org/2000/svg" width="227" height="36" viewBox="0 0 227 36" fill="none"> <path d="M0.0146484 17.8038L18.0548 0L21.4274 3.32848L3.38731 21.1323L0.0146484 17.8038Z" fill="#4662F3"></path> <path d="M14.9141 32.4136L32.9016 14.6617L36.2743 17.9902L18.2867 35.7421L14.9141 32.4136Z" fill="#4662F3"></path> <path d="M3.38724 14.4753L18.2867 29.0851L14.9141 32.4136L0.0146484 17.8038L3.38724 14.4753Z" fill="#4662F3"></path> <path d="M25.256 7.10619L36.275 17.9808L32.9023 21.3093L21.8834 10.4347L25.256 7.10619Z" fill="#4662F3"></path> <path d="M22.2619 10.0611L25.6345 13.3896L19.5647 19.429L16.1921 16.1005L22.2619 10.0611Z" fill="#4662F3"></path> <path d="M18.0548 0L21.4274 3.32848L18.0548 6.65697L14.6821 3.32848L18.0548 0Z" fill="#4662F3"></path> <path d="M62.223 17.6463H65.7051V25.4888C64.686 26.2946 63.497 26.913 62.1381 27.344C60.7792 27.775 59.3826 27.9905 57.9482 27.9905C55.9288 27.9905 54.1075 27.5595 52.4844 26.6975C50.8613 25.8167 49.5874 24.608 48.6626 23.0714C47.7378 21.5348 47.2754 19.8014 47.2754 17.8712C47.2754 15.9411 47.7378 14.2077 48.6626 12.671C49.5874 11.1344 50.8613 9.93509 52.4844 9.07308C54.1264 8.19233 55.9665 7.75195 58.0048 7.75195C59.6657 7.75195 61.1755 8.02368 62.5344 8.56712C63.8933 9.11056 65.0351 9.90698 65.9599 10.9564L63.6385 13.2051C62.1286 11.706 60.3074 10.9564 58.1747 10.9564C56.7781 10.9564 55.5324 11.2469 54.4378 11.8278C53.362 12.4087 52.5127 13.2239 51.8899 14.2733C51.286 15.3227 50.984 16.522 50.984 17.8712C50.984 19.183 51.286 20.3636 51.8899 21.413C52.5127 22.4624 53.362 23.2869 54.4378 23.8866C55.5324 24.4862 56.7686 24.7861 58.1464 24.7861C59.694 24.7861 61.0529 24.4487 62.223 23.7741V17.6463Z" fill="#4662F3"></path> <path d="M83.5251 27.7094L79.4768 21.947C79.3069 21.9658 79.0521 21.9751 78.7124 21.9751H74.2395V27.7094H70.5592V8.03304H78.7124C80.4299 8.03304 81.9209 8.31413 83.1854 8.87632C84.4688 9.4385 85.4502 10.2443 86.1296 11.2937C86.8091 12.3431 87.1488 13.5893 87.1488 15.0322C87.1488 16.5126 86.7807 17.7869 86.0447 18.855C85.3275 19.9232 84.2895 20.7196 82.9306 21.2443L87.4885 27.7094H83.5251ZM83.4402 15.0322C83.4402 13.7767 83.025 12.8116 82.1946 12.137C81.3641 11.4624 80.1468 11.125 78.5426 11.125H74.2395V18.9675H78.5426C80.1468 18.9675 81.3641 18.6302 82.1946 17.9555C83.025 17.2622 83.4402 16.2877 83.4402 15.0322Z" fill="#4662F3"></path> <path d="M104.119 23.1557H94.2106L92.2572 27.7094H88.4636L97.3813 8.03304H101.005L109.951 27.7094H106.101L104.119 23.1557ZM102.902 20.2886L99.1648 11.6872L95.4562 20.2886H102.902Z" fill="#4662F3"></path> <path d="M130.08 8.03304V27.7094H127.051L116.123 14.3857V27.7094H112.471V8.03304H115.5L126.428 21.3567V8.03304H130.08Z" fill="#4662F3"></path> <path d="M135.39 8.03304H144.053C146.167 8.03304 148.045 8.44531 149.686 9.26984C151.328 10.0756 152.602 11.2281 153.508 12.7273C154.414 14.2077 154.867 15.9223 154.867 17.8712C154.867 19.8201 154.414 21.5441 153.508 23.0433C152.602 24.5237 151.328 25.6762 149.686 26.5007C148.045 27.3065 146.167 27.7094 144.053 27.7094H135.39V8.03304ZM143.883 24.6174C145.336 24.6174 146.61 24.3457 147.705 23.8022C148.818 23.2401 149.668 22.453 150.253 21.4411C150.857 20.4104 151.159 19.2205 151.159 17.8712C151.159 16.522 150.857 15.3414 150.253 14.3295C149.668 13.2988 148.818 12.5118 147.705 11.9683C146.61 11.4061 145.336 11.125 143.883 11.125H139.07V24.6174H143.883Z" fill="#4662F3"></path> <path d="M181.465 24.6455V27.7094H166.603V8.03304H181.069V11.0969H170.283V16.2128H179.852V19.2205H170.283V24.6455H181.465Z" fill="#4662F3"></path> <path d="M185.568 8.03304H194.231C196.345 8.03304 198.223 8.44531 199.865 9.26984C201.507 10.0756 202.781 11.2281 203.686 12.7273C204.592 14.2077 205.045 15.9223 205.045 17.8712C205.045 19.8201 204.592 21.5441 203.686 23.0433C202.781 24.5237 201.507 25.6762 199.865 26.5007C198.223 27.3065 196.345 27.7094 194.231 27.7094H185.568V8.03304ZM194.061 24.6174C195.514 24.6174 196.788 24.3457 197.883 23.8022C198.997 23.2401 199.846 22.453 200.431 21.4411C201.035 20.4104 201.337 19.2205 201.337 17.8712C201.337 16.522 201.035 15.3414 200.431 14.3295C199.846 13.2988 198.997 12.5118 197.883 11.9683C196.788 11.4061 195.514 11.125 194.061 11.125H189.248V24.6174H194.061Z" fill="#4662F3"></path> <path d="M217.478 27.9905C214.742 27.9905 212.609 27.2315 211.08 25.7137C209.552 24.177 208.787 21.9845 208.787 19.1361V8.03304H212.467V18.9956C212.467 22.8559 214.147 24.7861 217.507 24.7861C220.847 24.7861 222.517 22.8559 222.517 18.9956V8.03304H226.141V19.1361C226.141 21.9845 225.377 24.177 223.848 25.7137C222.338 27.2315 220.215 27.9905 217.478 27.9905Z" fill="#4662F3"></path> </svg> 